<mxfile host="app.diagrams.net" modified="2020-12-01T08:09:21.301Z" agent="5.0 (Macintosh; Intel Mac OS X 11_0_0) AppleWebKit/537.36 (KHTML, like Gecko) Chrome/86.0.4240.111 Safari/537.36" etag="z4Zk7IVBHdAmFvUoAp0-" version="13.10.4" type="github">
  <diagram id="6e-vJD3wvlppIElbMWfc" name="Page-1">
    <mxGraphModel dx="946" dy="621" grid="1" gridSize="10" guides="1" tooltips="1" connect="1" arrows="1" fold="1" page="1" pageScale="1" pageWidth="827" pageHeight="1169" math="0" shadow="0">
      <root>
        <mxCell id="0" />
        <mxCell id="1" parent="0" />
        <mxCell id="qqQF4ZpkAIQ9nv0Ad5gP-3" value="" style="edgeStyle=orthogonalEdgeStyle;rounded=0;orthogonalLoop=1;jettySize=auto;html=1;" parent="1" source="qqQF4ZpkAIQ9nv0Ad5gP-1" target="qqQF4ZpkAIQ9nv0Ad5gP-2" edge="1">
          <mxGeometry relative="1" as="geometry" />
        </mxCell>
        <mxCell id="qqQF4ZpkAIQ9nv0Ad5gP-1" value="开始" style="ellipse;whiteSpace=wrap;html=1;" parent="1" vertex="1">
          <mxGeometry x="335" y="40" width="106" height="60" as="geometry" />
        </mxCell>
        <mxCell id="qqQF4ZpkAIQ9nv0Ad5gP-5" value="" style="edgeStyle=orthogonalEdgeStyle;rounded=0;orthogonalLoop=1;jettySize=auto;html=1;exitX=0.5;exitY=1;exitDx=0;exitDy=0;" parent="1" source="qqQF4ZpkAIQ9nv0Ad5gP-2" target="qqQF4ZpkAIQ9nv0Ad5gP-4" edge="1">
          <mxGeometry relative="1" as="geometry" />
        </mxCell>
        <mxCell id="qqQF4ZpkAIQ9nv0Ad5gP-9" style="edgeStyle=orthogonalEdgeStyle;rounded=0;orthogonalLoop=1;jettySize=auto;html=1;exitX=0.5;exitY=1;exitDx=0;exitDy=0;entryX=0.5;entryY=0;entryDx=0;entryDy=0;" parent="1" source="qqQF4ZpkAIQ9nv0Ad5gP-2" target="qqQF4ZpkAIQ9nv0Ad5gP-7" edge="1">
          <mxGeometry relative="1" as="geometry" />
        </mxCell>
        <mxCell id="qqQF4ZpkAIQ9nv0Ad5gP-2" value="&lt;div style=&quot;text-align: left&quot;&gt;&lt;span style=&quot;font-size: 14px&quot;&gt;&lt;font face=&quot;helvetica neue, helvetica, verdana, arial, sans-serif&quot;&gt;Monitor::handle_command&lt;/font&gt;&lt;/span&gt;&lt;/div&gt;" style="whiteSpace=wrap;html=1;" parent="1" vertex="1">
          <mxGeometry x="280" y="130" width="216" height="60" as="geometry" />
        </mxCell>
        <mxCell id="qqQF4ZpkAIQ9nv0Ad5gP-13" value="" style="edgeStyle=orthogonalEdgeStyle;rounded=0;orthogonalLoop=1;jettySize=auto;html=1;" parent="1" source="qqQF4ZpkAIQ9nv0Ad5gP-4" target="qqQF4ZpkAIQ9nv0Ad5gP-12" edge="1">
          <mxGeometry relative="1" as="geometry" />
        </mxCell>
        <mxCell id="qqQF4ZpkAIQ9nv0Ad5gP-4" value="dump_fs_stats/&lt;br&gt;dump_cluster_stats" style="whiteSpace=wrap;html=1;" parent="1" vertex="1">
          <mxGeometry x="140" y="240" width="120" height="60" as="geometry" />
        </mxCell>
        <mxCell id="qqQF4ZpkAIQ9nv0Ad5gP-11" value="" style="edgeStyle=orthogonalEdgeStyle;rounded=0;orthogonalLoop=1;jettySize=auto;html=1;" parent="1" source="qqQF4ZpkAIQ9nv0Ad5gP-7" target="qqQF4ZpkAIQ9nv0Ad5gP-10" edge="1">
          <mxGeometry relative="1" as="geometry" />
        </mxCell>
        <mxCell id="qqQF4ZpkAIQ9nv0Ad5gP-7" value="dump_pool_stats" style="rounded=0;whiteSpace=wrap;html=1;" parent="1" vertex="1">
          <mxGeometry x="488" y="240" width="120" height="60" as="geometry" />
        </mxCell>
        <mxCell id="qqQF4ZpkAIQ9nv0Ad5gP-39" value="" style="edgeStyle=orthogonalEdgeStyle;rounded=0;orthogonalLoop=1;jettySize=auto;html=1;" parent="1" source="qqQF4ZpkAIQ9nv0Ad5gP-10" target="qqQF4ZpkAIQ9nv0Ad5gP-38" edge="1">
          <mxGeometry relative="1" as="geometry" />
        </mxCell>
        <mxCell id="qqQF4ZpkAIQ9nv0Ad5gP-10" value="PGMapDigest::dump_pool_stats_full" style="whiteSpace=wrap;html=1;rounded=0;" parent="1" vertex="1">
          <mxGeometry x="445" y="330" width="206" height="60" as="geometry" />
        </mxCell>
        <mxCell id="qqQF4ZpkAIQ9nv0Ad5gP-16" style="edgeStyle=orthogonalEdgeStyle;rounded=0;orthogonalLoop=1;jettySize=auto;html=1;entryX=0.5;entryY=0;entryDx=0;entryDy=0;dashed=1;" parent="1" source="qqQF4ZpkAIQ9nv0Ad5gP-12" target="qqQF4ZpkAIQ9nv0Ad5gP-14" edge="1">
          <mxGeometry relative="1" as="geometry" />
        </mxCell>
        <mxCell id="qqQF4ZpkAIQ9nv0Ad5gP-12" value="PGMapDigest::dump_cluster_stats" style="whiteSpace=wrap;html=1;" parent="1" vertex="1">
          <mxGeometry x="102.5" y="330" width="195" height="60" as="geometry" />
        </mxCell>
        <mxCell id="qqQF4ZpkAIQ9nv0Ad5gP-14" value="mempool::pgmap::unordered_map&amp;lt;int32_t,osd_stat_t&amp;gt; osd_stat" style="shape=dataStorage;whiteSpace=wrap;html=1;fixedSize=1;" parent="1" vertex="1">
          <mxGeometry x="30" y="450" width="340" height="80" as="geometry" />
        </mxCell>
        <mxCell id="qqQF4ZpkAIQ9nv0Ad5gP-21" style="edgeStyle=orthogonalEdgeStyle;rounded=0;orthogonalLoop=1;jettySize=auto;html=1;exitX=0.5;exitY=0;exitDx=0;exitDy=0;entryX=0.5;entryY=1;entryDx=0;entryDy=0;dashed=1;" parent="1" source="qqQF4ZpkAIQ9nv0Ad5gP-18" target="qqQF4ZpkAIQ9nv0Ad5gP-14" edge="1">
          <mxGeometry relative="1" as="geometry" />
        </mxCell>
        <mxCell id="qqQF4ZpkAIQ9nv0Ad5gP-25" value="" style="edgeStyle=orthogonalEdgeStyle;rounded=0;orthogonalLoop=1;jettySize=auto;html=1;" parent="1" source="qqQF4ZpkAIQ9nv0Ad5gP-18" target="qqQF4ZpkAIQ9nv0Ad5gP-24" edge="1">
          <mxGeometry relative="1" as="geometry" />
        </mxCell>
        <mxCell id="qqQF4ZpkAIQ9nv0Ad5gP-18" value="OSD::init" style="whiteSpace=wrap;html=1;" parent="1" vertex="1">
          <mxGeometry x="40" y="600" width="120" height="60" as="geometry" />
        </mxCell>
        <mxCell id="qqQF4ZpkAIQ9nv0Ad5gP-22" style="edgeStyle=orthogonalEdgeStyle;rounded=0;orthogonalLoop=1;jettySize=auto;html=1;exitX=0.5;exitY=0;exitDx=0;exitDy=0;entryX=0.5;entryY=1;entryDx=0;entryDy=0;dashed=1;" parent="1" source="qqQF4ZpkAIQ9nv0Ad5gP-20" target="qqQF4ZpkAIQ9nv0Ad5gP-14" edge="1">
          <mxGeometry relative="1" as="geometry">
            <mxPoint x="200" y="540" as="targetPoint" />
          </mxGeometry>
        </mxCell>
        <mxCell id="qqQF4ZpkAIQ9nv0Ad5gP-26" style="edgeStyle=orthogonalEdgeStyle;rounded=0;orthogonalLoop=1;jettySize=auto;html=1;exitX=0.5;exitY=1;exitDx=0;exitDy=0;entryX=0.5;entryY=0;entryDx=0;entryDy=0;" parent="1" source="qqQF4ZpkAIQ9nv0Ad5gP-20" target="qqQF4ZpkAIQ9nv0Ad5gP-24" edge="1">
          <mxGeometry relative="1" as="geometry">
            <mxPoint x="100" y="740" as="targetPoint" />
          </mxGeometry>
        </mxCell>
        <mxCell id="qqQF4ZpkAIQ9nv0Ad5gP-20" value="OSD::tick_without_osd_lock" style="whiteSpace=wrap;html=1;" parent="1" vertex="1">
          <mxGeometry x="213" y="600" width="170" height="60" as="geometry" />
        </mxCell>
        <mxCell id="qqQF4ZpkAIQ9nv0Ad5gP-28" value="" style="edgeStyle=orthogonalEdgeStyle;rounded=0;orthogonalLoop=1;jettySize=auto;html=1;" parent="1" source="qqQF4ZpkAIQ9nv0Ad5gP-24" target="qqQF4ZpkAIQ9nv0Ad5gP-27" edge="1">
          <mxGeometry relative="1" as="geometry" />
        </mxCell>
        <mxCell id="qqQF4ZpkAIQ9nv0Ad5gP-30" style="edgeStyle=orthogonalEdgeStyle;rounded=0;orthogonalLoop=1;jettySize=auto;html=1;exitX=0.5;exitY=1;exitDx=0;exitDy=0;entryX=0.575;entryY=0.017;entryDx=0;entryDy=0;entryPerimeter=0;" parent="1" source="qqQF4ZpkAIQ9nv0Ad5gP-24" target="qqQF4ZpkAIQ9nv0Ad5gP-29" edge="1">
          <mxGeometry relative="1" as="geometry" />
        </mxCell>
        <mxCell id="qqQF4ZpkAIQ9nv0Ad5gP-24" value="store-&amp;gt;statfs" style="whiteSpace=wrap;html=1;" parent="1" vertex="1">
          <mxGeometry x="140" y="740" width="120" height="60" as="geometry" />
        </mxCell>
        <mxCell id="qqQF4ZpkAIQ9nv0Ad5gP-33" value="" style="edgeStyle=orthogonalEdgeStyle;rounded=0;orthogonalLoop=1;jettySize=auto;html=1;" parent="1" source="qqQF4ZpkAIQ9nv0Ad5gP-27" target="qqQF4ZpkAIQ9nv0Ad5gP-32" edge="1">
          <mxGeometry relative="1" as="geometry" />
        </mxCell>
        <mxCell id="qqQF4ZpkAIQ9nv0Ad5gP-27" value="FileStore::statfs" style="whiteSpace=wrap;html=1;" parent="1" vertex="1">
          <mxGeometry x="70" y="860" width="120" height="60" as="geometry" />
        </mxCell>
        <mxCell id="qqQF4ZpkAIQ9nv0Ad5gP-37" value="" style="edgeStyle=orthogonalEdgeStyle;rounded=0;orthogonalLoop=1;jettySize=auto;html=1;" parent="1" source="qqQF4ZpkAIQ9nv0Ad5gP-29" target="qqQF4ZpkAIQ9nv0Ad5gP-36" edge="1">
          <mxGeometry relative="1" as="geometry" />
        </mxCell>
        <mxCell id="qqQF4ZpkAIQ9nv0Ad5gP-29" value="BlueStore::statfs" style="whiteSpace=wrap;html=1;" parent="1" vertex="1">
          <mxGeometry x="241" y="860" width="120" height="60" as="geometry" />
        </mxCell>
        <mxCell id="qqQF4ZpkAIQ9nv0Ad5gP-54" style="edgeStyle=orthogonalEdgeStyle;rounded=0;orthogonalLoop=1;jettySize=auto;html=1;" parent="1" source="qqQF4ZpkAIQ9nv0Ad5gP-32" target="qqQF4ZpkAIQ9nv0Ad5gP-52" edge="1">
          <mxGeometry relative="1" as="geometry">
            <Array as="points">
              <mxPoint x="140" y="1040" />
            </Array>
          </mxGeometry>
        </mxCell>
        <mxCell id="qqQF4ZpkAIQ9nv0Ad5gP-32" value="::statfs" style="whiteSpace=wrap;html=1;" parent="1" vertex="1">
          <mxGeometry x="95" y="960" width="70" height="40" as="geometry" />
        </mxCell>
        <mxCell id="qqQF4ZpkAIQ9nv0Ad5gP-55" style="edgeStyle=orthogonalEdgeStyle;rounded=0;orthogonalLoop=1;jettySize=auto;html=1;exitX=0.5;exitY=1;exitDx=0;exitDy=0;entryX=0;entryY=0.5;entryDx=0;entryDy=0;" parent="1" source="qqQF4ZpkAIQ9nv0Ad5gP-36" target="qqQF4ZpkAIQ9nv0Ad5gP-52" edge="1">
          <mxGeometry relative="1" as="geometry" />
        </mxCell>
        <mxCell id="qqQF4ZpkAIQ9nv0Ad5gP-36" value="BlueFS-&amp;gt;get_free" style="whiteSpace=wrap;html=1;" parent="1" vertex="1">
          <mxGeometry x="246.5" y="960" width="109" height="40" as="geometry" />
        </mxCell>
        <mxCell id="qqQF4ZpkAIQ9nv0Ad5gP-41" value="" style="edgeStyle=orthogonalEdgeStyle;rounded=0;orthogonalLoop=1;jettySize=auto;html=1;" parent="1" source="qqQF4ZpkAIQ9nv0Ad5gP-38" target="qqQF4ZpkAIQ9nv0Ad5gP-40" edge="1">
          <mxGeometry relative="1" as="geometry" />
        </mxCell>
        <mxCell id="qqQF4ZpkAIQ9nv0Ad5gP-38" value="PGMap::get_rule_avail" style="whiteSpace=wrap;html=1;rounded=0;" parent="1" vertex="1">
          <mxGeometry x="479.5" y="450" width="137" height="60" as="geometry" />
        </mxCell>
        <mxCell id="qqQF4ZpkAIQ9nv0Ad5gP-43" value="" style="edgeStyle=orthogonalEdgeStyle;rounded=0;orthogonalLoop=1;jettySize=auto;html=1;" parent="1" source="qqQF4ZpkAIQ9nv0Ad5gP-40" target="qqQF4ZpkAIQ9nv0Ad5gP-42" edge="1">
          <mxGeometry relative="1" as="geometry" />
        </mxCell>
        <mxCell id="qqQF4ZpkAIQ9nv0Ad5gP-40" value="CrushWrapper::_get_take_weight_osd_map" style="whiteSpace=wrap;html=1;rounded=0;" parent="1" vertex="1">
          <mxGeometry x="426" y="590" width="244" height="60" as="geometry" />
        </mxCell>
        <mxCell id="qqQF4ZpkAIQ9nv0Ad5gP-48" value="" style="edgeStyle=orthogonalEdgeStyle;rounded=0;orthogonalLoop=1;jettySize=auto;html=1;" parent="1" source="qqQF4ZpkAIQ9nv0Ad5gP-42" target="qqQF4ZpkAIQ9nv0Ad5gP-47" edge="1">
          <mxGeometry relative="1" as="geometry" />
        </mxCell>
        <mxCell id="qqQF4ZpkAIQ9nv0Ad5gP-42" value="CrushWrapper::_normalize_weight_map" style="whiteSpace=wrap;html=1;rounded=0;" parent="1" vertex="1">
          <mxGeometry x="426" y="680" width="244" height="60" as="geometry" />
        </mxCell>
        <mxCell id="qqQF4ZpkAIQ9nv0Ad5gP-46" style="edgeStyle=orthogonalEdgeStyle;rounded=0;orthogonalLoop=1;jettySize=auto;html=1;entryX=1;entryY=0.5;entryDx=0;entryDy=0;" parent="1" source="qqQF4ZpkAIQ9nv0Ad5gP-45" target="qqQF4ZpkAIQ9nv0Ad5gP-38" edge="1">
          <mxGeometry relative="1" as="geometry" />
        </mxCell>
        <mxCell id="qqQF4ZpkAIQ9nv0Ad5gP-45" value="N版增加预留空间根据配置计算mon_osd_full_ratio" style="shape=document;whiteSpace=wrap;html=1;boundedLbl=1;align=left;" parent="1" vertex="1">
          <mxGeometry x="670" y="440" width="130" height="80" as="geometry" />
        </mxCell>
        <mxCell id="qqQF4ZpkAIQ9nv0Ad5gP-50" value="" style="edgeStyle=orthogonalEdgeStyle;rounded=0;orthogonalLoop=1;jettySize=auto;html=1;" parent="1" source="qqQF4ZpkAIQ9nv0Ad5gP-47" target="qqQF4ZpkAIQ9nv0Ad5gP-49" edge="1">
          <mxGeometry relative="1" as="geometry" />
        </mxCell>
        <mxCell id="qqQF4ZpkAIQ9nv0Ad5gP-47" value="OSDMap::pool_raw_used_rate" style="whiteSpace=wrap;html=1;rounded=0;" parent="1" vertex="1">
          <mxGeometry x="463" y="770" width="170" height="60" as="geometry" />
        </mxCell>
        <mxCell id="qqQF4ZpkAIQ9nv0Ad5gP-53" value="" style="edgeStyle=orthogonalEdgeStyle;rounded=0;orthogonalLoop=1;jettySize=auto;html=1;" parent="1" source="qqQF4ZpkAIQ9nv0Ad5gP-49" target="qqQF4ZpkAIQ9nv0Ad5gP-52" edge="1">
          <mxGeometry relative="1" as="geometry" />
        </mxCell>
        <mxCell id="qqQF4ZpkAIQ9nv0Ad5gP-49" value="dump_object_stat_sum" style="whiteSpace=wrap;html=1;rounded=0;" parent="1" vertex="1">
          <mxGeometry x="477" y="870" width="142" height="60" as="geometry" />
        </mxCell>
        <mxCell id="qqQF4ZpkAIQ9nv0Ad5gP-52" value="结束" style="ellipse;whiteSpace=wrap;html=1;rounded=0;" parent="1" vertex="1">
          <mxGeometry x="488" y="1000" width="120" height="80" as="geometry" />
        </mxCell>
      </root>
    </mxGraphModel>
  </diagram>
</mxfile>
